<svg width="8" height="11" viewBox="0 0 8 11" fill="none" xmlns="http://www.w3.org/2000/svg">
<path fill-rule="evenodd" clip-rule="evenodd" d="M6.50001 0.500076L4.00001 3.00008L1.50001 0.500076C1.22387 0.223933 0.776157 0.223933 0.500015 0.500076C0.223872 0.776218 0.223872 1.22393 0.500014 1.50008L3.29291 4.29297C3.68343 4.68349 4.3166 4.68349 4.70712 4.29297L7.50001 1.50008C7.77616 1.22393 7.77616 0.776218 7.50001 0.500076C7.22387 0.223933 6.77616 0.223933 6.50001 0.500076ZM6.50001 6.50008L4.00001 9.00008L1.50001 6.50008C1.22387 6.22393 0.776157 6.22393 0.500015 6.50008C0.223872 6.77622 0.223872 7.22393 0.500014 7.50008L3.29291 10.293C3.68343 10.6835 4.3166 10.6835 4.70712 10.293L7.50001 7.50008C7.77616 7.22393 7.77616 6.77622 7.50001 6.50008C7.22387 6.22393 6.77616 6.22393 6.50001 6.50008Z" fill="#41F6D7"/>
</svg>
