<svg width="98" height="52" viewBox="0 0 98 52" fill="none" xmlns="http://www.w3.org/2000/svg">
<path fill-rule="evenodd" clip-rule="evenodd" d="M36.5704 0.591797C36.0182 0.591797 35.5704 1.03951 35.5704 1.5918V5.86675C35.5704 6.41903 36.0181 6.86675 36.5704 6.86675H72.8974C83.0244 6.86675 90.9778 14.6634 90.9778 24.7562C90.9778 25.0418 91.2093 25.2733 91.4949 25.2733H96.7571C97.0426 25.2733 97.2741 25.0418 97.2741 24.7562C97.2741 11.267 86.4321 0.591797 72.8974 0.591797H36.5704Z" fill="#6B7B84" stroke="#80949F" stroke-width="0.5"/>
<path fill-rule="evenodd" clip-rule="evenodd" d="M7.1067 25.7117C7.1067 25.4697 6.91047 25.2734 6.66841 25.2734H1.16424C0.922181 25.2734 0.725952 25.4697 0.725952 25.7117C0.725952 39.3611 10.9492 50.6306 24.1686 51.3681L66.5102 51.4059C67.0629 51.4064 67.5111 50.9585 67.5111 50.4059V45.8263C67.5111 45.274 67.0634 44.8263 66.5111 44.8263H25.6264C15.3902 44.7979 7.1067 36.2826 7.1067 25.7117Z" fill="#6B7B84" stroke="#80949F" stroke-width="0.5"/>
<path fill-rule="evenodd" clip-rule="evenodd" d="M28.1415 39.7909C30.8803 39.7909 33.1616 39.2588 35.4149 38.164L35.5704 38.0185V30.184L34.7273 31.2634C33.1049 33.0363 30.9259 34.0122 28.4608 34.0122C23.8692 34.0122 19.2575 31.0444 19.2575 25.3723C19.2575 21.086 22.4381 16.5305 28.2993 16.5305C29.4688 16.5305 32.313 16.807 34.7232 19.3665L35.5704 20.4102V12.6113L35.4218 12.4638C33.1258 11.3133 30.7843 10.7539 28.1137 10.7539C23.5467 10.7539 19.9821 11.9562 17.1438 14.4275C15.3435 15.9762 12.3408 19.447 12.3408 25.2908C12.3408 29.6116 13.8793 32.986 17.1669 35.9129C20.2252 38.5947 23.6163 39.7909 28.1415 39.7909Z" fill="#6B7B84"/>
<path d="M28.1415 39.7909C30.8803 39.7909 33.1616 39.2588 35.4149 38.164L35.5704 38.0185V30.184L34.7273 31.2634C33.1049 33.0363 30.9259 34.0122 28.4608 34.0122C23.8692 34.0122 19.2575 31.0444 19.2575 25.3723C19.2575 21.086 22.4381 16.5305 28.2993 16.5305C29.4688 16.5305 32.313 16.807 34.7232 19.3665L35.5704 20.4102V12.6113L35.4218 12.4638C33.1258 11.3133 30.7843 10.7539 28.1137 10.7539C23.5467 10.7539 19.9821 11.9562 17.1438 14.4275C15.3435 15.9762 12.3408 19.447 12.3408 25.2908C12.3408 29.6116 13.8793 32.986 17.1669 35.9129C20.2252 38.5947 23.6163 39.7909 28.1415 39.7909" stroke="#80949F" stroke-width="0.5"/>
<path fill-rule="evenodd" clip-rule="evenodd" d="M47.9111 17.2872H49.2755C50.5269 17.2872 51.9533 17.3555 53.0328 18.0914C53.56 18.4679 54.4445 19.3397 54.4445 20.923C54.4445 22.093 53.9274 23.1421 53.0734 23.7968C51.9783 24.5916 50.6768 24.546 49.6309 24.546H47.9111V17.2872ZM50.9768 29.8164C54.2082 29.8164 56.7376 28.8843 58.4942 27.1284C60.6549 24.9721 60.9778 22.0059 60.9778 20.4421C60.9778 18.7688 60.5812 15.5051 57.9211 13.142C55.7406 11.2314 53.4141 10.7539 50.1323 10.7539H41.3778V39.7909H48.0364V29.8164H50.9768Z" fill="#6B7B84"/>
<path d="M47.9111 17.2872V17.0372H47.6611V17.2872H47.9111ZM53.0328 18.0914L53.1782 17.8879L53.1737 17.8848L53.0328 18.0914ZM53.0734 23.7968L53.2203 23.9992L53.2255 23.9952L53.0734 23.7968ZM47.9111 24.546H47.6611V24.796H47.9111V24.546ZM58.4942 27.1284L58.3176 26.9514L58.3174 26.9516L58.4942 27.1284ZM57.9211 13.142L58.0871 12.9551L58.0858 12.954L57.9211 13.142ZM41.3778 10.7539V10.5039H41.1278V10.7539H41.3778ZM41.3778 39.7909H41.1278V40.0409H41.3778V39.7909ZM48.0364 39.7909V40.0409H48.2864V39.7909H48.0364ZM48.0364 29.8164V29.5664H47.7864V29.8164H48.0364ZM47.9111 17.5372H49.2755V17.0372H47.9111V17.5372ZM49.2755 17.5372C50.5326 17.5372 51.8839 17.6107 52.892 18.298L53.1737 17.8848C52.0227 17.1003 50.5212 17.0372 49.2755 17.0372V17.5372ZM52.8875 18.2948C53.3752 18.6431 54.1945 19.4479 54.1945 20.923H54.6945C54.6945 19.2314 53.7448 18.2927 53.1782 17.8879L52.8875 18.2948ZM54.1945 20.923C54.1945 22.0189 53.7107 22.9932 52.9213 23.5984L53.2255 23.9952C54.1441 23.291 54.6945 22.1671 54.6945 20.923H54.1945ZM52.9265 23.5945C51.9091 24.3329 50.6971 24.296 49.6309 24.296V24.796C50.6564 24.796 52.0476 24.8503 53.2202 23.9991L52.9265 23.5945ZM49.6309 24.296H47.9111V24.796H49.6309V24.296ZM48.1611 24.546V17.2872H47.6611V24.546H48.1611ZM50.9768 30.0664C54.2567 30.0664 56.8562 29.1192 58.6709 27.3052L58.3174 26.9516C56.619 28.6494 54.1598 29.5664 50.9768 29.5664V30.0664ZM58.6707 27.3053C60.9028 25.0778 61.2278 22.0273 61.2278 20.4421H60.7278C60.7278 21.9845 60.4069 24.8663 58.3176 26.9514L58.6707 27.3053ZM61.2278 20.4421C61.2278 18.7407 60.8262 15.3884 58.0871 12.9551L57.755 13.3289C60.3362 15.6219 60.7278 18.7969 60.7278 20.4421H61.2278ZM58.0858 12.954C55.8399 10.9859 53.4416 10.5039 50.1323 10.5039V11.0039C53.3866 11.0039 55.6413 11.4768 57.7563 13.3301L58.0858 12.954ZM50.1323 10.5039H41.3778V11.0039H50.1323V10.5039ZM41.1278 10.7539V39.7909H41.6278V10.7539H41.1278ZM41.3778 40.0409H48.0364V39.5409H41.3778V40.0409ZM48.2864 39.7909V29.8164H47.7864V39.7909H48.2864ZM48.0364 30.0664H50.9768V29.5664H48.0364V30.0664Z" fill="#80949F"/>
<path fill-rule="evenodd" clip-rule="evenodd" d="M80.9529 24.4672C79.5052 23.1846 77.4845 22.441 75.1909 21.6698C73.5568 21.1012 72.6564 20.7879 72.0561 20.2406C71.5823 19.8384 71.3711 19.4018 71.3711 18.8247C71.3711 17.5607 72.23 16.2099 74.6413 16.2099C76.28 16.2099 77.652 16.9105 78.7196 18.2916L79.1434 18.8399L82.6596 14.3641L82.339 14.043C80.1885 11.891 77.3547 10.7539 74.1438 10.7539C67.6655 10.7539 64.7656 14.9684 64.7656 19.1454C64.7656 21.3868 65.565 23.1945 67.1365 24.516C68.5436 25.7219 70.2594 26.3977 71.9053 26.9492L72.0913 27.0109C73.5529 27.494 75.0644 27.994 75.9672 28.8019C76.5953 29.379 76.8753 30.0062 76.8753 30.8353C76.8753 32.7353 75.3789 34.0122 73.1519 34.0122C71.3915 34.0122 69.0734 33.1493 67.847 30.7282L67.5262 30.0938L63.1556 34.1396L63.4134 34.5042C64.8078 36.4786 67.9544 39.7909 73.3592 39.7909C79.319 39.7909 83.4816 35.9594 83.4816 30.4736C83.4816 27.336 82.105 25.4737 80.9529 24.4672Z" fill="#6B7B84"/>
<path d="M80.9529 24.4672C79.5052 23.1846 77.4845 22.441 75.1909 21.6698C73.5568 21.1012 72.6564 20.7879 72.0561 20.2406C71.5823 19.8384 71.3711 19.4018 71.3711 18.8247C71.3711 17.5607 72.23 16.2099 74.6413 16.2099C76.28 16.2099 77.652 16.9105 78.7196 18.2916L79.1434 18.8399L82.6596 14.3641L82.339 14.043C80.1885 11.891 77.3547 10.7539 74.1438 10.7539C67.6655 10.7539 64.7656 14.9684 64.7656 19.1454C64.7656 21.3868 65.565 23.1945 67.1365 24.516C68.5436 25.7219 70.2594 26.3977 71.9053 26.9492L72.0913 27.0109C73.5529 27.494 75.0644 27.994 75.9672 28.8019C76.5953 29.379 76.8753 30.0062 76.8753 30.8353C76.8753 32.7353 75.3789 34.0122 73.1519 34.0122C71.3915 34.0122 69.0734 33.1493 67.847 30.7282L67.5262 30.0938L63.1556 34.1396L63.4134 34.5042C64.8078 36.4786 67.9544 39.7909 73.3592 39.7909C79.319 39.7909 83.4816 35.9594 83.4816 30.4736C83.4816 27.336 82.105 25.4737 80.9529 24.4672" stroke="#80949F" stroke-width="0.5"/>
</svg>
