<svg width="320" height="88" viewBox="0 0 320 88" fill="none" xmlns="http://www.w3.org/2000/svg">
<rect width="320" height="88" fill="white"/>
<rect x="264" y="24" width="40" height="40" rx="20" fill="#FF3E79"/>
<path fill-rule="evenodd" clip-rule="evenodd" d="M276 35C276 34.4477 276.448 34 277 34H291C291.552 34 292 34.4477 292 35V52.5C291.172 52.5 290.5 53.1715 290.5 53.9999H289.5C289.5 53.1715 288.828 52.5 288 52.5C287.172 52.5 286.5 53.1715 286.5 53.9999H285.5C285.5 53.1715 284.828 52.5 284 52.5C283.172 52.5 282.5 53.1715 282.5 53.9999H281.5C281.5 53.1715 280.828 52.5 280 52.5C279.172 52.5 278.5 53.1715 278.5 53.9999H277.5C277.5 53.1715 276.828 52.5 276 52.5V35ZM285.416 45.7884C284.554 46.3443 283.47 46.5936 282.33 46.3827C280.527 46.0472 279.09 44.5326 278.859 42.7114C278.495 39.8261 280.949 37.4201 283.854 37.8802C285.656 38.1677 287.103 39.6439 287.401 41.4365C287.583 42.5484 287.324 43.5741 286.787 44.4272L288.896 46.5265C289.27 46.9003 289.27 47.5138 288.896 47.8876C288.513 48.2711 287.899 48.2711 287.525 47.8972L285.416 45.7884ZM280.706 42.0588C280.706 40.7599 281.76 39.7058 283.059 39.7058C284.358 39.7058 285.412 40.7599 285.412 42.0588C285.412 43.3576 284.358 44.4117 283.059 44.4117C281.76 44.4117 280.706 43.3576 280.706 42.0588Z" fill="white"/>
<rect x="186" y="28" width="2" height="32" rx="1" fill="#EAEAEA"/>
<rect x="208" y="24" width="40" height="40" rx="20" fill="#FF3E79"/>
<path d="M226.258 47.4583L226.667 47.0494L224.95 45.3322L224.541 45.7411L224.337 45.5367C224.01 45.1687 223.683 44.9643 223.356 45.0052C223.11 45.0052 222.906 45.1687 222.743 45.414C222.497 45.8229 222.62 46.2726 222.661 46.5588C222.661 46.6406 222.702 46.6815 222.702 46.7632C222.702 46.8859 222.702 47.0494 222.416 47.0903C222.007 47.213 221.475 47.3356 220.944 47.6218C220.208 48.0307 219.718 48.3987 219.431 48.7666C217.919 50.7291 218.001 52.4055 218.001 52.4872C218.001 52.6099 218.042 52.6917 218.123 52.7325L219.227 53.8773C219.309 53.9591 219.391 54 219.472 54C219.472 54 219.513 54 219.595 54C220.004 54 221.475 53.9182 223.192 52.569C223.56 52.2828 223.928 51.7922 224.337 51.0562C224.623 50.5656 224.786 50.0341 224.868 49.5844C224.95 49.2982 225.073 49.2982 225.195 49.2982C225.236 49.2982 225.318 49.339 225.4 49.339C225.563 49.3799 225.727 49.4208 225.931 49.4208C226.135 49.4208 226.34 49.3799 226.544 49.2573C226.789 49.0937 226.953 48.8893 226.994 48.644C227.035 48.3169 226.871 47.9898 226.503 47.7036L226.258 47.4583Z" fill="white"/>
<path d="M234.884 38.8784L236.019 38.326C236.061 38.2835 236.145 38.241 236.187 38.1986L237.91 35.8616C238.036 35.6916 238.036 35.4367 237.868 35.3092L236.691 34.1195C236.565 33.992 236.313 33.9495 236.145 34.077L233.833 35.8191C233.791 35.8616 233.749 35.9041 233.707 35.989L233.161 37.1363L229 41.2154L230.765 43L234.884 38.8784Z" fill="white"/>
<path d="M235.853 47.0448C234.864 46.0036 233.439 45.6288 232.094 46.0036L225.645 39.1733C225.724 38.7985 225.764 38.4653 225.764 38.0905C225.764 37.0493 225.368 36.0081 224.617 35.2167C223.588 34.0923 222.045 33.7174 220.621 34.2172C220.542 34.2588 220.423 34.3838 220.383 34.5504C220.383 34.6753 220.423 34.8003 220.502 34.9252L222.441 36.966C222.876 37.4241 222.876 38.2154 222.441 38.6735C222.005 39.1317 221.254 39.1317 220.819 38.6735L218.88 36.6328C218.761 36.5495 218.643 36.5078 218.484 36.5495C218.366 36.5495 218.247 36.6744 218.207 36.7994C217.733 38.2571 218.089 39.8813 219.117 40.9642C219.829 41.7555 220.858 42.172 221.887 42.172C222.203 42.172 222.559 42.1303 222.876 42.047L229.364 48.8773C229.008 50.2933 229.404 51.7927 230.353 52.8339C231.105 53.6252 232.055 54 233.083 54C233.518 54 233.914 53.9167 234.349 53.7918C234.468 53.7501 234.587 53.6252 234.626 53.5002C234.666 53.3753 234.626 53.2087 234.507 53.1254L232.569 51.0846C232.371 50.8764 232.213 50.5432 232.213 50.21C232.213 49.8768 232.332 49.5853 232.569 49.3354C232.806 49.0855 233.083 48.9606 233.4 48.9606C233.716 48.9606 233.993 49.0855 234.231 49.3354L236.169 51.3762C236.288 51.4595 236.407 51.5011 236.525 51.5011C236.644 51.4595 236.763 51.3762 236.802 51.2512C236.921 50.8348 237 50.3766 237 49.9185C237 48.8356 236.604 47.7944 235.853 47.0448Z" fill="white"/>
<rect x="16" y="24" width="40" height="40" rx="20" fill="#FF3E79"/>
<path fill-rule="evenodd" clip-rule="evenodd" d="M27 37C27 36.4477 27.4477 36 28 36H44C44.5523 36 45 36.4477 45 37C45 37.5523 44.5523 38 44 38H28C27.4477 38 27 37.5523 27 37ZM27 44C27 43.4477 27.4477 43 28 43H36C36.5523 43 37 43.4477 37 44C37 44.5523 36.5523 45 36 45H28C27.4477 45 27 44.5523 27 44ZM28 50C27.4477 50 27 50.4477 27 51C27 51.5523 27.4477 52 28 52H40C40.5523 52 41 51.5523 41 51C41 50.4477 40.5523 50 40 50H28Z" fill="white"/>
<rect y="87" width="320" height="1" fill="#D9FFF5"/>
<path fill-rule="evenodd" clip-rule="evenodd" d="M108.571 18.5918C108.018 18.5918 107.571 19.0395 107.571 19.5918V23.8667C107.571 24.419 108.018 24.8667 108.571 24.8667H144.898C155.024 24.8667 162.978 32.6634 162.978 42.7562V42.7562C162.978 43.0418 163.209 43.2733 163.495 43.2733H168.757C169.043 43.2733 169.274 43.0418 169.274 42.7562V42.7562C169.274 29.267 158.432 18.5918 144.898 18.5918H108.571Z" fill="#6B7B84" stroke="#80949F" stroke-width="0.5"/>
<path fill-rule="evenodd" clip-rule="evenodd" d="M79.1068 43.7117V43.7117C79.1068 43.4697 78.9106 43.2734 78.6685 43.2734H73.1644C72.9223 43.2734 72.7261 43.4697 72.7261 43.7117V43.7117C72.7261 57.3611 82.9493 68.6306 96.1687 69.3681L138.51 69.4059C139.063 69.4064 139.511 68.9585 139.511 68.4059V63.8263C139.511 63.274 139.064 62.8263 138.511 62.8263H97.6265C87.3903 62.7979 79.1068 54.2826 79.1068 43.7117Z" fill="#6B7B84" stroke="#80949F" stroke-width="0.5"/>
<path fill-rule="evenodd" clip-rule="evenodd" d="M100.142 57.7909C102.88 57.7909 105.162 57.2588 107.415 56.164L107.57 56.0185V48.184L106.727 49.2634C105.105 51.0363 102.926 52.0122 100.461 52.0122C95.8692 52.0122 91.2575 49.0444 91.2575 43.3723C91.2575 39.086 94.4381 34.5305 100.299 34.5305C101.469 34.5305 104.313 34.807 106.723 37.3665L107.57 38.4102V30.6113L107.422 30.4638C105.126 29.3133 102.784 28.7539 100.114 28.7539C95.5467 28.7539 91.9821 29.9562 89.1438 32.4275C87.3435 33.9762 84.3408 37.447 84.3408 43.2908C84.3408 47.6116 85.8793 50.986 89.1669 53.9129C92.2252 56.5947 95.6163 57.7909 100.142 57.7909" fill="#6B7B84"/>
<path d="M100.142 57.7909C102.88 57.7909 105.162 57.2588 107.415 56.164L107.57 56.0185V48.184L106.727 49.2634C105.105 51.0363 102.926 52.0122 100.461 52.0122C95.8692 52.0122 91.2575 49.0444 91.2575 43.3723C91.2575 39.086 94.4381 34.5305 100.299 34.5305C101.469 34.5305 104.313 34.807 106.723 37.3665L107.57 38.4102V30.6113L107.422 30.4638C105.126 29.3133 102.784 28.7539 100.114 28.7539C95.5467 28.7539 91.9821 29.9562 89.1438 32.4275C87.3435 33.9762 84.3408 37.447 84.3408 43.2908C84.3408 47.6116 85.8793 50.986 89.1669 53.9129C92.2252 56.5947 95.6163 57.7909 100.142 57.7909" stroke="#80949F" stroke-width="0.5"/>
<path fill-rule="evenodd" clip-rule="evenodd" d="M119.911 35.2874H121.275C122.527 35.2874 123.953 35.3556 125.033 36.0915C125.56 36.468 126.444 37.3398 126.444 38.9231C126.444 40.0931 125.927 41.1422 125.073 41.7969C123.978 42.5917 122.677 42.5461 121.631 42.5461H119.911V35.2874ZM122.977 47.8164C126.208 47.8164 128.738 46.8843 130.494 45.1284C132.655 42.9721 132.978 40.0059 132.978 38.4421C132.978 36.7688 132.581 33.5051 129.921 31.142C127.741 29.2314 125.414 28.7539 122.132 28.7539H113.378V57.7909H120.037V47.8164H122.977V47.8164Z" fill="#6B7B84"/>
<path d="M119.911 35.2874V35.0374H119.661V35.2874H119.911ZM125.033 36.0915L125.178 35.888L125.174 35.8849L125.033 36.0915ZM125.073 41.7969L125.22 41.9993L125.225 41.9953L125.073 41.7969ZM119.911 42.5461H119.661V42.7961H119.911V42.5461ZM130.494 45.1284L130.318 44.9514L130.318 44.9516L130.494 45.1284ZM129.921 31.142L130.087 30.9551L130.086 30.954L129.921 31.142ZM113.378 28.7539V28.5039H113.128V28.7539H113.378ZM113.378 57.7909H113.128V58.0409H113.378V57.7909ZM120.037 57.7909V58.0409H120.287V57.7909H120.037ZM120.037 47.8164V47.5664H119.787V47.8164H120.037ZM119.911 35.5374H121.275V35.0374H119.911V35.5374ZM121.275 35.5374C122.533 35.5374 123.884 35.6109 124.892 36.2981L125.174 35.8849C124.023 35.1004 122.521 35.0374 121.275 35.0374V35.5374ZM124.888 36.2949C125.375 36.6432 126.194 37.4481 126.194 38.9231H126.694C126.694 37.2315 125.745 36.2928 125.178 35.8881L124.888 36.2949ZM126.194 38.9231C126.194 40.019 125.711 40.9933 124.921 41.5985L125.225 41.9953C126.144 41.2911 126.694 40.1672 126.694 38.9231H126.194ZM124.926 41.5946C123.909 42.333 122.697 42.2961 121.631 42.2961V42.7961C122.656 42.7961 124.048 42.8504 125.22 41.9992L124.926 41.5946ZM121.631 42.2961H119.911V42.7961H121.631V42.2961ZM120.161 42.5461V35.2874H119.661V42.5461H120.161ZM122.977 48.0664C126.257 48.0664 128.856 47.1192 130.671 45.3052L130.318 44.9516C128.619 46.6494 126.16 47.5664 122.977 47.5664V48.0664ZM130.671 45.3053C132.903 43.0778 133.228 40.0273 133.228 38.4421H132.728C132.728 39.9845 132.407 42.8663 130.318 44.9514L130.671 45.3053ZM133.228 38.4421C133.228 36.7407 132.826 33.3884 130.087 30.9551L129.755 31.3289C132.336 33.6219 132.728 36.7969 132.728 38.4421H133.228ZM130.086 30.954C127.84 28.9859 125.442 28.5039 122.132 28.5039V29.0039C125.387 29.0039 127.641 29.4768 129.756 31.3301L130.086 30.954ZM122.132 28.5039H113.378V29.0039H122.132V28.5039ZM113.128 28.7539V57.7909H113.628V28.7539H113.128ZM113.378 58.0409H120.037V57.5409H113.378V58.0409ZM120.287 57.7909V47.8164H119.787V57.7909H120.287ZM120.037 48.0664H122.977V47.5664H120.037V48.0664Z" fill="#80949F"/>
<path fill-rule="evenodd" clip-rule="evenodd" d="M152.953 42.4672C151.505 41.1846 149.485 40.441 147.191 39.6698C145.557 39.1012 144.657 38.7879 144.056 38.2406C143.582 37.8384 143.371 37.4018 143.371 36.8247C143.371 35.5607 144.23 34.2099 146.641 34.2099C148.28 34.2099 149.652 34.9105 150.72 36.2916L151.143 36.8399L154.66 32.3641L154.339 32.043C152.189 29.891 149.355 28.7539 146.144 28.7539C139.666 28.7539 136.766 32.9684 136.766 37.1454C136.766 39.3868 137.565 41.1945 139.137 42.516C140.544 43.7219 142.26 44.3977 143.905 44.9492L144.091 45.0109C145.553 45.494 147.065 45.994 147.967 46.8019C148.595 47.379 148.875 48.0062 148.875 48.8353C148.875 50.7353 147.379 52.0122 145.152 52.0122C143.392 52.0122 141.074 51.1493 139.847 48.7282L139.526 48.0938L135.156 52.1396L135.414 52.5042C136.808 54.4786 139.954 57.7909 145.359 57.7909C151.319 57.7909 155.482 53.9594 155.482 48.4736C155.482 45.336 154.105 43.4737 152.953 42.4672" fill="#6B7B84"/>
<path d="M152.953 42.4672C151.505 41.1846 149.485 40.441 147.191 39.6698C145.557 39.1012 144.657 38.7879 144.056 38.2406C143.582 37.8384 143.371 37.4018 143.371 36.8247C143.371 35.5607 144.23 34.2099 146.641 34.2099C148.28 34.2099 149.652 34.9105 150.72 36.2916L151.143 36.8399L154.66 32.3641L154.339 32.043C152.189 29.891 149.355 28.7539 146.144 28.7539C139.666 28.7539 136.766 32.9684 136.766 37.1454C136.766 39.3868 137.565 41.1945 139.137 42.516C140.544 43.7219 142.26 44.3977 143.905 44.9492L144.091 45.0109C145.553 45.494 147.065 45.994 147.967 46.8019C148.595 47.379 148.875 48.0062 148.875 48.8353C148.875 50.7353 147.379 52.0122 145.152 52.0122C143.392 52.0122 141.074 51.1493 139.847 48.7282L139.526 48.0938L135.156 52.1396L135.414 52.5042C136.808 54.4786 139.954 57.7909 145.359 57.7909C151.319 57.7909 155.482 53.9594 155.482 48.4736C155.482 45.336 154.105 43.4737 152.953 42.4672" stroke="#80949F" stroke-width="0.5"/>
</svg>
